<svg xmlns="http://www.w3.org/2000/svg" viewBox="0 0 552.9 599" width="552.9" height="599" style="--bg:#ffffff;--fg:#1f2328;--line:#d1d9e0;--accent:#0969da;--muted:#59636e;background:var(--bg)">
<style>
  @import url('https://fonts.googleapis.com/css2?family=Inter:wght@400;500;600;700&amp;display=swap');
  text { font-family: 'Inter', system-ui, sans-serif; }
  svg {
    /* Derived from --bg and --fg (overridable via --line, --accent, etc.) */
    --_text:          var(--fg);
    --_text-sec:      var(--muted, color-mix(in srgb, var(--fg) 60%, var(--bg)));
    --_text-muted:    var(--muted, color-mix(in srgb, var(--fg) 40%, var(--bg)));
    --_text-faint:    color-mix(in srgb, var(--fg) 25%, var(--bg));
    --_line:          var(--line, color-mix(in srgb, var(--fg) 30%, var(--bg)));
    --_arrow:         var(--accent, color-mix(in srgb, var(--fg) 50%, var(--bg)));
    --_node-fill:     var(--surface, color-mix(in srgb, var(--fg) 3%, var(--bg)));
    --_node-stroke:   var(--border, color-mix(in srgb, var(--fg) 20%, var(--bg)));
    --_group-fill:    var(--bg);
    --_group-hdr:     color-mix(in srgb, var(--fg) 5%, var(--bg));
    --_inner-stroke:  color-mix(in srgb, var(--fg) 12%, var(--bg));
    --_key-badge:     color-mix(in srgb, var(--fg) 10%, var(--bg));
  }
</style>
<defs>
  <marker id="arrowhead" markerWidth="8" markerHeight="4.8" refX="8" refY="2.4" orient="auto">
    <polygon points="0 0, 8 2.4, 0 4.8" fill="var(--_arrow)" />
  </marker>
  <marker id="arrowhead-start" markerWidth="8" markerHeight="4.8" refX="0" refY="2.4" orient="auto-start-reverse">
    <polygon points="8 0, 0 2.4, 8 4.8" fill="var(--_arrow)" />
  </marker>
</defs>
<rect x="103.11875" y="56" width="368.1125" height="316" rx="0" ry="0" fill="var(--_group-fill)" stroke="var(--_node-stroke)" stroke-width="1" />
<rect x="103.11875" y="56" width="368.1125" height="28" rx="0" ry="0" fill="var(--_group-hdr)" stroke="var(--_node-stroke)" stroke-width="1" />
<text x="115.11875" y="70" dy="0.35em" font-size="12" font-weight="600" fill="var(--_text-sec)">Server functions</text>
<rect x="125.54375000000002" y="92" width="329.6875" height="112" rx="0" ry="0" fill="var(--_group-fill)" stroke="var(--_node-stroke)" stroke-width="1" />
<rect x="125.54375000000002" y="92" width="329.6875" height="28" rx="0" ry="0" fill="var(--_group-hdr)" stroke="var(--_node-stroke)" stroke-width="1" />
<text x="137.54375000000002" y="106" dy="0.35em" font-size="12" font-weight="600" fill="var(--_text-sec)">Authorization</text>
<rect x="119.11875" y="248" width="318.9625" height="112" rx="0" ry="0" fill="var(--_group-fill)" stroke="var(--_node-stroke)" stroke-width="1" />
<rect x="119.11875" y="248" width="318.9625" height="28" rx="0" ry="0" fill="var(--_group-hdr)" stroke="var(--_node-stroke)" stroke-width="1" />
<text x="131.11875" y="262" dy="0.35em" font-size="12" font-weight="600" fill="var(--_text-sec)">Allowed actions</text>
<rect x="208.70000000000002" y="376" width="156.95" height="183" rx="0" ry="0" fill="var(--_group-fill)" stroke="var(--_node-stroke)" stroke-width="1" />
<rect x="208.70000000000002" y="376" width="156.95" height="28" rx="0" ry="0" fill="var(--_group-hdr)" stroke="var(--_node-stroke)" stroke-width="1" />
<text x="220.70000000000002" y="390" dy="0.35em" font-size="12" font-weight="600" fill="var(--_text-sec)">Data access</text>
<polyline points="127.5,76 127.5,166 206.44375,166" fill="none" stroke="var(--_line)" stroke-width="0.75" marker-end="url(#arrowhead)" />
<polyline points="287.175,76 287.175,166 206.44375,166" fill="none" stroke="var(--_line)" stroke-width="0.75" marker-end="url(#arrowhead)" />
<polyline points="436.125,76 436.125,166 363.60625000000005,166" fill="none" stroke="var(--_line)" stroke-width="0.75" marker-end="url(#arrowhead)" />
<polyline points="287.175,372 287.175,412" fill="none" stroke="var(--_line)" stroke-width="0.75" marker-end="url(#arrowhead)" />
<polyline points="206.44375000000002,184 206.44375000000002,204 196.44375000000002,204 196.44375000000002,304" fill="none" stroke="var(--_line)" stroke-width="0.75" marker-end="url(#arrowhead)" />
<polyline points="206.44375000000002,184 206.44375000000002,204 277.34375,204 277.34375,322 291.13125,322" fill="none" stroke="var(--_line)" stroke-width="0.75" marker-end="url(#arrowhead)" />
<polyline points="363.60625000000005,184 363.60625000000005,322 416.08125000000007,322" fill="none" stroke="var(--_line)" stroke-width="0.75" marker-end="url(#arrowhead)" />
<polyline points="287.175,460 287.175,500" fill="none" stroke="var(--_line)" stroke-width="0.75" marker-end="url(#arrowhead)" />
<rect x="40" y="40" width="175" height="36" rx="0" ry="0" fill="var(--_node-fill)" stroke="var(--_node-stroke)" stroke-width="0.75" />
<rect x="239" y="40" width="96.35000000000001" height="36" rx="0" ry="0" fill="var(--_node-fill)" stroke="var(--_node-stroke)" stroke-width="0.75" />
<rect x="359.35" y="40" width="153.55" height="36" rx="0" ry="0" fill="var(--_node-fill)" stroke="var(--_node-stroke)" stroke-width="0.75" />
<rect x="147.54375" y="148" width="117.80000000000001" height="36" rx="0" ry="0" fill="var(--_node-fill)" stroke="var(--_node-stroke)" stroke-width="0.75" />
<rect x="293.98125000000005" y="148" width="139.25" height="36" rx="0" ry="0" fill="var(--_node-fill)" stroke="var(--_node-stroke)" stroke-width="0.75" />
<rect x="141.11875" y="304" width="110.65" height="36" rx="0" ry="0" fill="var(--_node-fill)" stroke="var(--_node-stroke)" stroke-width="0.75" />
<rect x="291.13125" y="304" width="124.95" height="36" rx="0" ry="0" fill="var(--_node-fill)" stroke="var(--_node-stroke)" stroke-width="0.75" />
<rect x="231.85000000000002" y="424" width="110.65" height="36" rx="0" ry="0" fill="var(--_node-fill)" stroke="var(--_node-stroke)" stroke-width="0.75" />
<rect x="224.70000000000002" y="507" width="124.95" height="33" fill="var(--_node-fill)" stroke="none" />
<line x1="224.70000000000002" y1="507" x2="224.70000000000002" y2="540" stroke="var(--_node-stroke)" stroke-width="0.75" />
<line x1="349.65000000000003" y1="507" x2="349.65000000000003" y2="540" stroke="var(--_node-stroke)" stroke-width="0.75" />
<ellipse cx="287.175" cy="540" rx="62.475" ry="7" fill="var(--_node-fill)" stroke="var(--_node-stroke)" stroke-width="0.75" />
<ellipse cx="287.175" cy="507" rx="62.475" ry="7" fill="var(--_node-fill)" stroke="var(--_node-stroke)" stroke-width="0.75" />
<text x="127.5" y="58" text-anchor="middle" dy="0.35em" font-size="13" font-weight="500" fill="var(--_text)">Photographer session</text>
<text x="287.175" y="58" text-anchor="middle" dy="0.35em" font-size="13" font-weight="500" fill="var(--_text)">Neon Auth</text>
<text x="436.125" y="58" text-anchor="middle" dy="0.35em" font-size="13" font-weight="500" fill="var(--_text)">Couple share link</text>
<text x="206.44375" y="166" text-anchor="middle" dy="0.35em" font-size="13" font-weight="500" fill="var(--_text)">Session auth</text>
<text x="363.60625000000005" y="166" text-anchor="middle" dy="0.35em" font-size="13" font-weight="500" fill="var(--_text)">Share-link auth</text>
<text x="196.44375000000002" y="322" text-anchor="middle" dy="0.35em" font-size="13" font-weight="500" fill="var(--_text)">Event admin</text>
<text x="353.60625000000005" y="322" text-anchor="middle" dy="0.35em" font-size="13" font-weight="500" fill="var(--_text)">Collaboration</text>
<text x="287.175" y="442" text-anchor="middle" dy="0.35em" font-size="13" font-weight="500" fill="var(--_text)">Drizzle ORM</text>
<text x="287.175" y="523.5" text-anchor="middle" dy="0.35em" font-size="13" font-weight="500" fill="var(--_text)">Neon Postgres</text>
</svg>