<svg xmlns="http://www.w3.org/2000/svg" viewBox="0 0 1235.9499999999998 510" width="1235.9499999999998" height="510" style="--bg:#ffffff;--fg:#1f2328;--line:#d1d9e0;--accent:#0969da;--muted:#59636e;background:var(--bg)">
<style>
  @import url('https://fonts.googleapis.com/css2?family=Inter:wght@400;500;600;700&amp;display=swap');
  text { font-family: 'Inter', system-ui, sans-serif; }
  svg {
    /* Derived from --bg and --fg (overridable via --line, --accent, etc.) */
    --_text:          var(--fg);
    --_text-sec:      var(--muted, color-mix(in srgb, var(--fg) 60%, var(--bg)));
    --_text-muted:    var(--muted, color-mix(in srgb, var(--fg) 40%, var(--bg)));
    --_text-faint:    color-mix(in srgb, var(--fg) 25%, var(--bg));
    --_line:          var(--line, color-mix(in srgb, var(--fg) 30%, var(--bg)));
    --_arrow:         var(--accent, color-mix(in srgb, var(--fg) 50%, var(--bg)));
    --_node-fill:     var(--surface, color-mix(in srgb, var(--fg) 3%, var(--bg)));
    --_node-stroke:   var(--border, color-mix(in srgb, var(--fg) 20%, var(--bg)));
    --_group-fill:    var(--bg);
    --_group-hdr:     color-mix(in srgb, var(--fg) 5%, var(--bg));
    --_inner-stroke:  color-mix(in srgb, var(--fg) 12%, var(--bg));
    --_key-badge:     color-mix(in srgb, var(--fg) 10%, var(--bg));
  }
</style>
<defs>
  <marker id="seq-arrow" markerWidth="8" markerHeight="4.8" refX="8" refY="2.4" orient="auto-start-reverse">
    <polygon points="0 0, 8 2.4, 0 4.8" fill="var(--_arrow)" />
  </marker>
  <marker id="seq-arrow-open" markerWidth="8" markerHeight="4.8" refX="8" refY="2.4" orient="auto-start-reverse">
    <polyline points="0 0, 8 2.4, 0 4.8" fill="none" stroke="var(--_arrow)" stroke-width="1" />
  </marker>
</defs>
<line x1="70" y1="70" x2="70" y2="480" stroke="var(--_line)" stroke-width="0.75" stroke-dasharray="6 4" />
<line x1="248.22500000000002" y1="70" x2="248.22500000000002" y2="480" stroke="var(--_line)" stroke-width="0.75" stroke-dasharray="6 4" />
<line x1="527.575" y1="70" x2="527.575" y2="480" stroke="var(--_line)" stroke-width="0.75" stroke-dasharray="6 4" />
<line x1="839.1" y1="70" x2="839.1" y2="480" stroke="var(--_line)" stroke-width="0.75" stroke-dasharray="6 4" />
<line x1="1107.725" y1="70" x2="1107.725" y2="480" stroke="var(--_line)" stroke-width="0.75" stroke-dasharray="6 4" />
<line x1="70" y1="90" x2="248.22500000000002" y2="90" stroke="var(--_line)" stroke-width="0.75" marker-end="url(#seq-arrow)" />
<text x="159.1125" y="84" text-anchor="middle" font-size="11" font-weight="400" fill="var(--_text-muted)">Navigate to page</text>
<line x1="248.22500000000002" y1="130" x2="527.575" y2="130" stroke="var(--_line)" stroke-width="0.75" marker-end="url(#seq-arrow)" />
<text x="387.90000000000003" y="124" text-anchor="middle" font-size="11" font-weight="400" fill="var(--_text-muted)">Render + request data</text>
<line x1="527.575" y1="170" x2="839.1" y2="170" stroke="var(--_line)" stroke-width="0.75" marker-end="url(#seq-arrow)" />
<text x="683.3375000000001" y="164" text-anchor="middle" font-size="11" font-weight="400" fill="var(--_text-muted)">Call server function (validated input)</text>
<polyline points="839.1,210 869.1,210 869.1,230 839.1,230" fill="none" stroke="var(--_line)" stroke-width="0.75" marker-end="url(#seq-arrow)" />
<text x="875.1" y="220" dy="0.35em" font-size="11" font-weight="400" fill="var(--_text-muted)">Validate + authorize request</text>
<line x1="839.1" y1="280" x2="1107.725" y2="280" stroke="var(--_line)" stroke-width="0.75" marker-end="url(#seq-arrow)" />
<text x="973.4124999999999" y="274" text-anchor="middle" font-size="11" font-weight="400" fill="var(--_text-muted)">Run query/mutation</text>
<line x1="1107.725" y1="320" x2="839.1" y2="320" stroke="var(--_line)" stroke-width="0.75" stroke-dasharray="6 4" marker-end="url(#seq-arrow)" />
<text x="973.4124999999999" y="314" text-anchor="middle" font-size="11" font-weight="400" fill="var(--_text-muted)">Result rows</text>
<line x1="839.1" y1="360" x2="527.575" y2="360" stroke="var(--_line)" stroke-width="0.75" stroke-dasharray="6 4" marker-end="url(#seq-arrow)" />
<text x="683.3375000000001" y="354" text-anchor="middle" font-size="11" font-weight="400" fill="var(--_text-muted)">DTO response</text>
<line x1="527.575" y1="400" x2="248.22500000000002" y2="400" stroke="var(--_line)" stroke-width="0.75" stroke-dasharray="6 4" marker-end="url(#seq-arrow)" />
<text x="387.90000000000003" y="394" text-anchor="middle" font-size="11" font-weight="400" fill="var(--_text-muted)">Cache + provide data</text>
<line x1="248.22500000000002" y1="440" x2="70" y2="440" stroke="var(--_line)" stroke-width="0.75" stroke-dasharray="6 4" marker-end="url(#seq-arrow)" />
<text x="159.1125" y="434" text-anchor="middle" font-size="11" font-weight="400" fill="var(--_text-muted)">Render UI / updates</text>
<g transform="translate(52,32) scale(1.5)">
  <path d="M21 12C21 16.9706 16.9706 21 12 21C7.02944 21 3 16.9706 3 12C3 7.02944 7.02944 3 12 3C16.9706 3 21 7.02944 21 12Z" fill="none" stroke="var(--_line)" stroke-width="0.6666666666666666" />
  <path d="M15 10C15 11.6569 13.6569 13 12 13C10.3431 13 9 11.6569 9 10C9 8.34315 10.3431 7 12 7C13.6569 7 15 8.34315 15 10Z" fill="none" stroke="var(--_line)" stroke-width="0.6666666666666666" />
  <path d="M5.62842 18.3563C7.08963 17.0398 9.39997 16 12 16C14.6 16 16.9104 17.0398 18.3716 18.3563" fill="none" stroke="var(--_line)" stroke-width="0.6666666666666666" />
</g>
<text x="70" y="84" text-anchor="middle" font-size="13" font-weight="500" fill="var(--_text)">User</text>
<rect x="150" y="30" width="196.45000000000002" height="40" rx="4" ry="4" fill="var(--_node-fill)" stroke="var(--_node-stroke)" stroke-width="1" />
<text x="248.22500000000002" y="50" text-anchor="middle" dy="0.35em" font-size="13" font-weight="500" fill="var(--_text)">Route (TanStack Router)</text>
<rect x="386.45000000000005" y="30" width="282.25" height="40" rx="4" ry="4" fill="var(--_node-fill)" stroke="var(--_node-stroke)" stroke-width="1" />
<text x="527.575" y="50" text-anchor="middle" dy="0.35em" font-size="13" font-weight="500" fill="var(--_text)">Hook (TanStack Query + useServerFn)</text>
<rect x="708.7" y="30" width="260.8" height="40" rx="4" ry="4" fill="var(--_node-fill)" stroke="var(--_node-stroke)" stroke-width="1" />
<text x="839.1" y="50" text-anchor="middle" dy="0.35em" font-size="13" font-weight="500" fill="var(--_text)">Server Function (createServerFn)</text>
<rect x="1009.4999999999999" y="30" width="196.45000000000002" height="40" rx="4" ry="4" fill="var(--_node-fill)" stroke="var(--_node-stroke)" stroke-width="1" />
<text x="1107.725" y="50" text-anchor="middle" dy="0.35em" font-size="13" font-weight="500" fill="var(--_text)">Neon Postgres (Drizzle)</text>
</svg>